<svg xmlns="http://www.w3.org/2000/svg" width="24.37" height="32.991" viewBox="0 0 24.37 32.991">
  <g id="capslock" transform="translate(-437.841 -757.875)">
    <path id="路径_1" data-name="路径 1" d="M800.491,472.525l-9.622-9.889a1.53,1.53,0,0,0-2.192,0l-9.622,9.889a1.529,1.529,0,0,0,1.1,2.6h3.975a1.529,1.529,0,0,1,1.529,1.529v8.927a1.529,1.529,0,0,0,1.529,1.529h5.175a1.529,1.529,0,0,0,1.529-1.529V476.65a1.529,1.529,0,0,1,1.529-1.529h3.976A1.529,1.529,0,0,0,800.491,472.525Z" transform="translate(-339.747 296.701)" stroke-linecap="round" stroke-miterlimit="10" stroke-width="2"/>
    <line id="直线_2" data-name="直线 2" x2="13.938" transform="translate(442.92 789.865)" stroke-linecap="round" stroke-miterlimit="10" stroke-width="2"/>
  </g>
</svg>
